<?xml version="1.0" encoding="UTF-8" standalone="no"?>
<svg
   version="1.1"
   x="0px"
   y="0px"
   viewBox="0 0 100 125"
   style="enable-background:new 0 0 100 100;"
   xml:space="preserve"
   id="svg10"
   sodipodi:docname="noun-map-pin-1125193.svg"
   inkscape:version="1.2.2 (b0a84865, 2022-12-01)"
   xmlns:inkscape="http://www.inkscape.org/namespaces/inkscape"
   xmlns:sodipodi="http://sodipodi.sourceforge.net/DTD/sodipodi-0.dtd"
   xmlns="http://www.w3.org/2000/svg"
   xmlns:svg="http://www.w3.org/2000/svg"><defs
     id="defs14" /><sodipodi:namedview
     id="namedview12"
     pagecolor="#ffffff"
     bordercolor="#000000"
     borderopacity="0.25"
     inkscape:showpageshadow="2"
     inkscape:pageopacity="0.0"
     inkscape:pagecheckerboard="0"
     inkscape:deskcolor="#d1d1d1"
     showgrid="false"
     inkscape:zoom="1.888"
     inkscape:cx="49.788136"
     inkscape:cy="62.5"
     inkscape:window-width="1440"
     inkscape:window-height="900"
     inkscape:window-x="0"
     inkscape:window-y="0"
     inkscape:window-maximized="0"
     inkscape:current-layer="svg10" /><path
     d="M50,100c-1.1,0-2.1-0.5-2.8-1.3c-3.6-4.1-35.5-40.4-35.5-60.4C11.7,17.2,28.9,0,50,0s38.3,17.2,38.3,38.3  c0,19.9-31.9,56.3-35.5,60.4C52.1,99.5,51.1,100,50,100z M50,7.6c-16.9,0-30.7,13.8-30.7,30.7c0,13.2,20.1,39.5,30.7,52.1  c10.6-12.5,30.7-38.9,30.7-52.1C80.7,21.4,66.9,7.6,50,7.6z"
     id="path2" /><path
     d="M50,58c-10.6,0-19.2-8.6-19.2-19.2c0-10.6,8.6-19.2,19.2-19.2c10.6,0,19.2,8.6,19.2,19.2C69.2,49.4,60.6,58,50,58z M50,27.2  c-6.4,0-11.6,5.2-11.6,11.6S43.6,50.4,50,50.4c6.4,0,11.6-5.2,11.6-11.6S56.4,27.2,50,27.2z"
     id="path4" /><path
     style="fill:#ffffff;stroke-width:0.529661"
     d="M 45.509595,84.312246 C 32.43545,67.886096 24.262372,54.731738 20.858483,44.636915 19.656658,41.072693 19.510584,39.949384 19.771988,36.28178 20.545119,25.434435 27.045334,15.796947 36.718591,11.156044 42.156788,8.5469802 46.441177,7.6973075 52.075707,8.1104469 67.105667,9.2124854 79.04794,21.071735 80.315413,36.153829 c 0.285503,3.397285 0.131075,4.405743 -1.351425,8.825193 -0.920566,2.744288 -2.649475,6.86506 -3.842012,9.157269 -4.06491,7.813269 -14.685886,23.17578 -22.674943,32.797745 l -2.476572,2.98277 z M 57.929316,56.508419 c 4.082712,-1.869127 7.434885,-5.158449 9.470084,-9.292527 1.57668,-3.202691 1.721363,-3.920447 1.721363,-8.539501 0,-4.499949 -0.166478,-5.381979 -1.546193,-8.19203 -1.88458,-3.838304 -5.097335,-7.147001 -8.868265,-9.133097 -2.602341,-1.370616 -3.290204,-1.488976 -8.653339,-1.488976 -5.621374,0 -5.943031,0.06331 -9.146367,1.800371 -3.972274,2.154025 -6.636109,4.96422 -8.525685,8.994115 -1.217523,2.596608 -1.3953,3.653021 -1.392264,8.273311 0.0042,6.331264 0.93405,8.827941 4.845384,13.009473 4.252633,4.546409 8.917535,6.431725 15.11692,6.10949 2.880815,-0.149741 4.92699,-0.60148 6.978362,-1.540629 z"
     id="path4764" /><path
     style="fill:#ffffff;stroke-width:0.529661"
     d="m 46.671333,49.546187 c -4.217998,-1.358025 -7.967803,-6.184478 -7.994446,-10.28982 -0.07557,-11.644549 15.163145,-16.128425 20.909814,-6.152553 1.685544,2.926002 2.053668,5.169466 1.337856,8.153306 -1.509617,6.292788 -8.260134,10.2186 -14.253224,8.289067 z"
     id="path4766" /></svg>
